# xmcd
#
# Track frame offsets: 
#        150
#        13475
#        41182
#        54717
#        76925
#        92462
#        109145
#        123940
#        145225
#        160217
#        176062
#        194137
#        211292
#
# Disc length: 2954 seconds
#
# Revision: 0
# Processed by: cddbd v1.5.2PL0 Copyright (c) Steve Scherf et al.
# Submitted via: ExactAudioCopy v0.95b4
#
DISCID=bc0b880d
DTITLE=Lonnie Johnson - Blues Masters Vol. 4
DYEAR=1991
DGENRE=Blues
TTITLE0=Tomorrow Night
TTITLE1=Clementine Blues
TTITLE2=See See Rider
TTITLE3=Raining On The Coid, Cold Ground
TTITLE4=Jelly, Jelly
TTITLE5=Too Late To Cry Baby
TTITLE6=Call Me Darling
TTITLE7=Why Did You Go
TTITLE8=Swingin' With Lonnie
TTITLE9=Please Help Me
TTITLE10=My Baby Is Gone
TTITLE11=You Don't Know What Love Is
TTITLE12=Don't Cry Baby
EXTD=
EXTT0=
EXTT1=
EXTT2=
EXTT3=
EXTT4=
EXTT5=
EXTT6=
EXTT7=
EXTT8=
EXTT9=
EXTT10=
EXTT11=
EXTT12=
PLAYORDER=
